<?xml version="1.0" standalone="no"?>
<!DOCTYPE svg PUBLIC "-//W3C//DTD SVG 20010904//EN"
 "http://www.w3.org/TR/2001/REC-SVG-20010904/DTD/svg10.dtd">
<svg version="1.0" xmlns="http://www.w3.org/2000/svg"
 width="512.000000pt" height="512.000000pt" viewBox="0 0 512.000000 512.000000"
 preserveAspectRatio="xMidYMid meet">

<g transform="translate(0.000000,512.000000) scale(0.100000,-0.100000)"
fill="#e93d82d3" stroke="none">
<path d="M4040 3885 c-243 -39 -473 -142 -700 -313 -81 -61 -322 -296 -493
-481 l-105 -114 -36 22 c-91 57 -98 112 -30 233 67 118 128 211 205 314 77
103 133 157 187 181 54 25 72 43 72 73 0 63 -65 77 -146 31 -98 -57 -288 -290
-405 -498 -13 -24 -26 -43 -29 -43 -3 1 -32 46 -65 102 -193 327 -423 533
-498 450 -36 -40 -13 -93 46 -107 77 -20 242 -226 400 -502 62 -109 64 -150 8
-203 -55 -52 -86 -59 -114 -23 -167 214 -402 454 -557 570 -296 220 -561 303
-973 303 -87 0 -110 -4 -147 -22 -61 -31 -90 -77 -90 -142 0 -88 122 -594 180
-748 26 -70 89 -136 164 -173 46 -23 138 -45 280 -70 l39 -6 -100 -102 c-55
-56 -115 -124 -133 -150 -110 -165 -147 -379 -94 -557 61 -208 274 -451 493
-564 172 -88 402 -138 538 -117 156 23 226 83 352 299 46 79 87 140 91 135 4
-4 22 -51 39 -104 64 -193 126 -248 205 -178 35 30 69 104 112 242 10 31 20
57 23 57 3 0 26 -39 50 -86 105 -205 206 -327 298 -358 91 -31 243 -18 443 40
392 112 700 468 700 809 0 200 -79 369 -253 538 -52 51 -86 92 -81 97 5 5 46
14 91 20 152 20 222 52 306 136 86 87 122 183 201 551 44 201 51 266 36 323
-20 75 -73 117 -178 139 -69 14 -225 13 -332 -4z"/>
</g>
</svg>
